<?xml version="1.0" encoding="utf-8"?>
<!-- Generator: Adobe Illustrator 17.0.0, SVG Export Plug-In . SVG Version: 6.00 Build 0)  -->
<!DOCTYPE svg PUBLIC "-//W3C//DTD SVG 1.1//EN" "http://www.w3.org/Graphics/SVG/1.1/DTD/svg11.dtd">
<svg version="1.1"
	 id="svg2" sodipodi:docname="New document 1" inkscape:version="0.48.0 r9654" xmlns:inkscape="http://www.inkscape.org/namespaces/inkscape" xmlns:sodipodi="http://sodipodi.sourceforge.net/DTD/sodipodi-0.dtd" xmlns:svg="http://www.w3.org/2000/svg" xmlns:rdf="http://www.w3.org/1999/02/22-rdf-syntax-ns#" xmlns:dc="http://purl.org/dc/elements/1.1/" xmlns:cc="http://creativecommons.org/ns#"
	 xmlns="http://www.w3.org/2000/svg" xmlns:xlink="http://www.w3.org/1999/xlink" x="0px" y="0px" width="738.261px"
	 height="666.196px" viewBox="0 0 738.261 666.196" enable-background="new 0 0 738.261 666.196" xml:space="preserve">
<defs>
	
	<inkscape:path-effect  effect="spiro" id="path-effect3013" is_visible="true"></inkscape:path-effect>
	<inkscape:path-effect  effect="spiro" id="path-effect3009" is_visible="true"></inkscape:path-effect>
	<inkscape:path-effect  effect="spiro" id="path-effect3004" is_visible="true"></inkscape:path-effect>
	<inkscape:path-effect  effect="spiro" id="path-effect2987" is_visible="true"></inkscape:path-effect>
</defs>
<sodipodi:namedview  fit-margin-left="0" showgrid="false" inkscape:cy="448.5118" inkscape:cx="427.97426" fit-margin-top="0" pagecolor="#ffffff" bordercolor="#666666" inkscape:zoom="0.7" borderopacity="1.0" id="base" inkscape:window-maximized="1" inkscape:window-y="25" inkscape:window-x="0" inkscape:window-height="1148" inkscape:window-width="1600" fit-margin-bottom="0" fit-margin-right="0" inkscape:current-layer="layer1" inkscape:document-units="px" inkscape:pageshadow="2" inkscape:pageopacity="0.0">
	</sodipodi:namedview>
<g id="layer1" transform="translate(47.47321,-94.263959)" inkscape:label="Layer 1" inkscape:groupmode="layer">
	<path id="path3796" inkscape:connector-curvature="0" sodipodi:nodetypes="cscccsc" stroke="#000000" stroke-width="5.547" d="
		M438.501,458.708c0,0-18.545,142.48,20.399,158.312s25.963,92.109,25.963,92.109l28.913-21.653l17.902,17.399
		c0,0,6.978-72.187,16.034-111.052c28.669-123.038,7.622-173.973,7.622-173.973"/>
	<path id="path3007" inkscape:connector-curvature="0" sodipodi:nodetypes="ccccccc" stroke="#000000" stroke-width="6.8" d="
		M106.429,573.076l-5.714,137.143l12.679-12.321l8.75,12.321l0,0L165,584.505L106.429,573.076"/>
	<path id="path3801" inkscape:connector-curvature="0" fill="#DE8787" stroke="#000000" stroke-width="4.6464" d="M663.155,331.903
		c-2.446-1.023,0.105-3.698,1.618-3.938c4.098-0.648,6.763,3.87,6.512,7.34c-0.449,6.208-7.157,9.555-12.983,8.411
		c-8.549-1.679-13.218-10.764-11.406-18.617c2.415-10.468,14.052-15.776,24.348-12.884c12.956,3.64,19.806,17.725,16.3,29.895
		c-4.246,14.74-20.971,22.057-35.713,17.357c-3.132-0.999-6.11-2.488-8.797-4.385"/>
	
		<path id="path2989" inkscape:connector-curvature="0" sodipodi:nodetypes="sssscccccssccsss" fill="#DE8787" stroke="#000000" stroke-width="4.5279" d="
		M337.75,216.906c-46.3-0.206-92.666,5.288-135.344,16.438c-80.335,20.988-146.703,61.791-181.219,111.438
		S-15.631,452.36,14.906,503c25.99,43.099,75.542,80.506,138.156,105.125l1.219,119.938l19.26-12.624l12.177,16.936l26.188-105.906
		c72.923,17.339,155.528,18.834,229.781,3.719c82.824-16.86,154.329-54.168,195.25-101.906
		c40.921-47.738,50.817-105.392,27.031-157.406c2.187-5.932-15.299-26.1-19.5-32.344c-29.711-39.199-70.991-41.603-131.492-63.183
		c-15.017-5.356-49.975-27.859-66.159-31.71C408.667,234.56,378.603,217.088,337.75,216.906z"/>
	
		<path id="path2994" sodipodi:rx="97.85714" sodipodi:ry="67.14286" sodipodi:type="arc" sodipodi:cx="-379.28571" sodipodi:cy="289.50504" fill="#FFFFFF" stroke="#000000" stroke-width="24.7" d="
		M120,357.818c0,24.601-21.251,44.544-47.466,44.544s-47.466-19.943-47.466-44.544c0-24.601,21.251-44.544,47.466-44.544
		S120,333.217,120,357.818z"/>
	
		<path id="path2996" sodipodi:rx="97.85714" sodipodi:ry="67.14286" sodipodi:type="arc" sodipodi:cx="-379.28571" sodipodi:cy="289.50504" fill="#FFFFFF" stroke="#000000" stroke-width="24.7" d="
		M195.69,357.704c0,19.93-22.06,36.086-49.273,36.086s-49.273-16.156-49.273-36.086c0-19.93,22.06-36.086,49.273-36.086
		S195.69,337.775,195.69,357.704z"/>
	
		<path id="path3842" inkscape:connector-curvature="0" sodipodi:nodetypes="csc" fill="#F38686" stroke="#000000" stroke-width="6.0252" d="
		M220.328,505.46c0,0-68.311,77.143-121.851,69.286C44.936,566.889-6.759,499.032-6.759,499.032"/>
	
		<path id="path3854" sodipodi:rx="49.497475" sodipodi:ry="24.243662" sodipodi:type="arc" sodipodi:cx="-643.46716" sodipodi:cy="201.52625" stroke="#000000" stroke-width="5.3" d="
		M160.647,511.963c0.013,13.389-18.978,24.25-42.417,24.257c-23.439,0.007-42.451-10.841-42.464-24.23c0-0.009,0-0.018,0-0.027
		c-0.013-13.389,18.978-24.25,42.417-24.257c23.439-0.007,42.451,10.841,42.464,24.23
		C160.647,511.945,160.647,511.954,160.647,511.963z"/>
	
		<path id="path3856" sodipodi:end="3.208226" sodipodi:start="0" sodipodi:rx="49.497475" sodipodi:ry="24.243662" sodipodi:type="arc" sodipodi:cx="-643.46716" sodipodi:cy="201.52625" fill="#AA0000" stroke="#000000" stroke-width="5.3" d="
		M154.88,514.788c0,13.389-19.001,24.244-42.44,24.244c-23.439,0-42.441-10.854-42.441-24.243c0-0.539,0.031-1.077,0.094-1.615
		l42.347,1.614H154.88z"/>
	
		<path id="path2992" sodipodi:rx="97.85714" sodipodi:ry="67.14286" sodipodi:type="arc" sodipodi:cx="-379.28571" sodipodi:cy="289.50504" fill="#FFAAAA" stroke="#000000" stroke-width="12.1" d="
		M154.286,448.076c0,37.082-43.812,67.143-97.857,67.143s-97.857-30.061-97.857-67.143s43.812-67.143,97.857-67.143
		S154.286,410.995,154.286,448.076z"/>
	
		<path id="path2998" sodipodi:rx="31.428572" sodipodi:ry="32.142857" sodipodi:type="arc" sodipodi:cx="-312.85715" sodipodi:cy="403.07648" stroke="#000000" stroke-width="24.7" d="
		M25.311,439.505c0,6.878-7.495,12.454-16.74,12.454s-16.74-5.576-16.74-12.454c0-6.878,7.495-12.454,16.74-12.454
		S25.311,432.627,25.311,439.505z"/>
	
		<path id="path3000" sodipodi:rx="31.428572" sodipodi:ry="32.142857" sodipodi:type="arc" sodipodi:cx="-312.85715" sodipodi:cy="403.07648" stroke="#000000" stroke-width="24.7" d="
		M93.883,446.648c0,6.878-7.495,12.454-16.74,12.454s-16.74-5.576-16.74-12.454c0-6.878,7.495-12.454,16.74-12.454
		S93.883,439.77,93.883,446.648z"/>
	
		<path id="path3018" inkscape:connector-curvature="0" sodipodi:nodetypes="cscccsc" fill="#DE8787" stroke="#000000" stroke-width="5.547" d="
		M509.93,471.565c0,0-18.545,142.48,20.399,158.312s25.963,92.109,25.963,92.109l23.058-16.771l23.757,12.517
		c0,0,6.978-72.187,16.034-111.052c28.669-123.038,7.622-173.973,7.622-173.973"/>
	<path id="path3788" inkscape:connector-curvature="0" fill="#DE8787" stroke="#000000" stroke-width="5.547" d="M200,286.648
		c0,0,20-111.429,50-94.286s78.571,60,78.571,60l-87.143,55.714"/>
	<path id="path3790" inkscape:connector-curvature="0" fill="#DE8787" stroke="#000000" stroke-width="5.547" d="M101.429,278.076
		l-17.143-81.429l74.286,8.571l-24.286,71.429"/>
	
		<path id="path3792" sodipodi:rx="16.428572" sodipodi:ry="15.714286" sodipodi:type="arc" sodipodi:cx="-340.71429" sodipodi:cy="285.21933" stroke="#000000" stroke-width="5.547" d="
		M80,346.648c0,8.679-7.355,15.714-16.429,15.714s-16.429-7.036-16.429-15.714s7.355-15.714,16.429-15.714
		C72.645,330.934,80,337.969,80,346.648z"/>
	
		<path id="path3794" sodipodi:rx="16.428572" sodipodi:ry="15.714286" sodipodi:type="arc" sodipodi:cx="-340.71429" sodipodi:cy="285.21933" stroke="#000000" stroke-width="5.547" d="
		M157.143,353.791c0,8.679-7.355,15.714-16.429,15.714s-16.429-7.036-16.429-15.714s7.355-15.714,16.429-15.714
		C149.788,338.076,157.143,345.112,157.143,353.791z"/>
	<path id="path3836" inkscape:connector-curvature="0" opacity="0.6423" fill="#FFFFFF" enable-background="new    " d="
		M-7.143,408.714c6.857-4.678,58.971-31.575,97.371-4.678c38.4,26.898,39.771,26.898,39.771,26.898S61.429,386.494-7.143,408.714
		L-7.143,408.714z"/>
</g>
</svg>
